<svg width="32" height="32" viewBox="0 0 32 32" fill="none" xmlns="http://www.w3.org/2000/svg">
<g clip-path="url(#clip0_102_7)">
<path d="M30 13V11H18.6182L17.8945 9.5527C17.8114 9.3866 17.6837 9.24691 17.5258 9.14929C17.3678 9.05167 17.1857 8.99998 17 9H9C8.73478 9 8.48043 9.10536 8.29289 9.29289C8.10536 9.48043 8 9.73478 8 10V15H4V17H22.6379L26.2379 20H3C2.73478 20 2.48043 20.1054 2.29289 20.2929C2.10536 20.4804 2 20.7348 2 21V23C2.00151 24.3256 2.52878 25.5965 3.46613 26.5339C4.40349 27.4712 5.67438 27.9985 7 28H25C26.3256 27.9985 27.5965 27.4712 28.5339 26.5339C29.4712 25.5965 29.9985 24.3256 30 23V21C30 20.8533 29.9677 20.7085 29.9055 20.5757C29.8433 20.4428 29.7526 20.3253 29.64 20.2314L23.64 15.2314C23.4602 15.0819 23.2338 15.0001 23 15H20.6182L19.6182 13H30ZM28 23C27.9991 23.7954 27.6828 24.5579 27.1204 25.1204C26.5579 25.6828 25.7954 25.9991 25 26H7C6.20462 25.9991 5.44206 25.6828 4.87964 25.1204C4.31722 24.5579 4.00087 23.7954 4 23V22H28V23ZM10 15V11H16.3821L18.3821 15H10Z" fill="#040512"/>
</g>
<defs>
<clipPath id="clip0_102_7">
<rect width="32" height="32" fill="white"/>
</clipPath>
</defs>
</svg>
